<svg width="160" height="205" viewBox="0 0 160 205" fill="none" xmlns="http://www.w3.org/2000/svg">
<path d="M137.755 101.392C157.199 103.013 163.681 95.3158 150.515 86.2011C119.525 64.7314 62.4059 22.1963 35.6685 8.62542C1.84268 -8.38878 -2.81598 3.96636 2.85542 33.5387C12.9829 85.5934 13.9959 132.382 19.6673 160.132C27.3642 197.806 53.4929 192.54 53.4929 168.031C53.4929 147.371 42.7576 44.8815 40.1244 40.6279C36.0734 34.3489 117.905 99.7719 137.755 101.392Z" fill="black"/>
<path d="M115.474 112.33C106.967 104.633 100.485 99.1663 95.2191 95.7229C60.3805 72.632 67.8728 112.94 68.683 122.054C70.7085 147.171 82.4564 201.049 86.3048 203.277C101.699 211.784 105.547 186.06 96.8374 133.195C96.0272 127.726 98.0527 129.346 114.662 146.968C135.322 168.641 142.411 172.489 154.159 168.641C166.92 164.185 157.604 150.612 115.474 112.33Z" fill="black"/>
</svg>
