<svg width="258" height="182" viewBox="0 0 258 182" fill="none" xmlns="http://www.w3.org/2000/svg">
<path d="M4.40022 117.442C-0.947096 123.347 1.72668 133.484 11.1959 142.397C26.1242 156.656 35.9276 154.539 38.6012 136.381C40.3837 124.461 12.1984 108.753 4.40022 117.442ZM27.9066 140.39C25.7899 142.061 22.6707 141.838 20.7768 139.833C20.554 139.499 9.07957 127.914 14.3155 122.79C16.5435 120.562 17.5462 120.562 20.554 123.013C28.6864 129.585 31.6943 133.372 27.9066 140.39Z" fill="black"/>
<path d="M147.442 26.7608C157.245 35.0046 180.751 22.6389 180.751 9.27062C180.751 2.02946 166.157 -2.87225 158.47 1.91806C144.991 10.1618 140.312 20.7451 147.442 26.7608ZM162.481 8.7136C168.385 3.47769 170.725 4.03471 170.725 7.82239C170.725 11.3873 163.929 18.9626 158.248 21.8591C151.006 25.6468 153.234 16.846 162.481 8.7136Z" fill="black"/>
<path d="M9.30264 82.0164C18.9944 84.6901 37.4872 67.0874 31.9171 60.7375C25.4558 53.4963 14.8725 51.6036 10.1936 56.7281C-2.95186 70.9876 -3.17444 78.563 9.30264 82.0164ZM10.3051 69.3166C16.2095 59.8474 19.997 58.8436 23.2277 61.2945C25.0102 62.6313 23.2277 66.4201 17.8804 71.4332C15.0952 73.9955 10.8622 78.2288 8.6341 76.5577C6.29465 74.9981 8.18849 72.6586 10.3051 69.3166Z" fill="black"/>
<path d="M191.557 121.564C177.966 130.811 176.183 153.314 189.106 153.314C198.018 153.314 215.286 136.047 215.286 127.134C215.286 119.002 200.469 115.437 191.557 121.564ZM188.438 147.744C187.324 147.632 190.666 137.718 193.896 131.368C197.461 124.461 204.257 120.672 205.816 124.794C207.153 127.802 195.79 148.19 188.438 147.744Z" fill="black"/>
<path d="M142.985 74.1069C133.85 83.2419 151.786 112.096 166.603 112.096C176.518 112.096 183.202 91.1514 176.295 81.5708C169.499 72.213 149.335 67.6455 142.985 74.1069ZM164.04 102.627C161.367 104.298 150.672 87.8105 150.672 82.0176C150.672 75.779 158.47 74.5525 163.818 80.1226C169.722 86.2497 169.833 98.9507 164.04 102.627Z" fill="black"/>
<path d="M240.016 51.715C237.788 51.0465 234.224 49.3755 232.107 47.9273C226.871 44.3624 220.522 44.251 218.182 47.8159C210.495 59.8473 215.508 72.5472 232.107 83.2419C246.033 92.1541 253.608 89.4815 256.616 74.7764C258.733 63.9703 252.382 55.2798 240.016 51.715ZM241.577 75.1095C240.908 76.8919 238.792 77.3386 237.343 76.1132L233.889 72.8814C224.197 63.7464 221.858 50.8249 229.768 50.8249C232.553 50.8249 232.999 51.158 231.885 52.3834C230.882 53.6088 231.773 54.9467 236.786 59.18C243.693 64.8616 244.362 67.4227 241.577 75.1095Z" fill="black"/>
<path d="M116.916 136.715C112.46 135.044 109.342 135.267 106.557 137.495C93.9683 147.744 94.8596 180.385 107.671 181.387C127.612 182.836 135.632 143.733 116.916 136.715ZM109.008 170.024C107.337 168.353 108.005 158.884 110.456 151.754C114.021 141.505 116.693 139.612 118.587 146.184C120.258 152.2 112.016 172.921 109.008 170.024Z" fill="black"/>
<path d="M86.6158 29.6573C89.0666 21.7477 68.7914 11.9443 62.887 18.2942C56.3143 25.424 49.7415 41.0203 51.1898 46.4791C54.309 58.3991 81.6026 45.4764 86.6158 29.6573ZM59.6564 45.922C56.2029 43.4712 64.3353 32.6651 68.2343 26.6494C72.1334 20.6337 76.0325 20.8565 76.0325 26.9836C76.0325 28.8775 63.1098 48.2615 59.6564 45.922Z" fill="black"/>
<path d="M74.3614 80.234C63.6668 85.0243 54.6432 106.414 60.7703 112.541C69.5711 121.342 86.9499 113.766 95.6393 97.39C100.318 88.4778 84.3877 75.6665 74.3614 80.234ZM78.7061 103.741C69.3483 112.653 65.4492 106.859 69.5711 99.061C75.2526 88.3664 85.2789 82.6849 86.3929 90.1488C86.8385 93.0453 84.2763 98.3937 78.7061 103.741Z" fill="black"/>
</svg>
