<svg width="181" height="220" viewBox="0 0 181 220" fill="none" xmlns="http://www.w3.org/2000/svg">
<path fill-rule="evenodd" clip-rule="evenodd" d="M58.4842 1.25448C10.2466 9.60971 -17.1585 68.7645 13.3659 98.5091C18.4905 103.522 18.7134 103.857 17.7108 107.644C12.0293 129.702 31.7474 160.115 58.4842 170.475C63.2745 172.369 63.4975 172.704 64.8344 178.719C76.7545 233.084 156.853 232.416 179.023 177.828C185.595 161.564 167.436 156.773 158.747 174.82C138.026 218.045 92.4622 221.163 84.2184 179.944L83.6614 177.048L94.9132 176.491C124.101 175.043 143.151 151.425 125.66 138.168C105.274 122.683 70.7386 134.493 65.5026 158.89C64.6114 163.123 64.6114 163.123 57.7044 157.776C42.5536 146.301 27.4029 110.095 39.2117 113.66C80.208 126.025 121.761 92.9392 87.3377 75.3375C71.1843 67.0937 48.4579 71.438 31.7474 86.0318C24.8404 92.0475 24.2835 91.7135 20.9414 80.6846C11.8063 50.6058 40.3256 11.3917 74.1921 7.49261C89.1201 5.82157 74.4148 -1.5306 58.4842 1.25448ZM78.314 82.0217C89.6771 88.1489 66.5053 109.315 50.7975 107.198C39.1002 105.639 38.5431 104.19 46.5641 95.501C56.5904 84.6949 71.5184 78.3454 78.314 82.0217ZM110.287 141.622C117.973 146.97 106.722 162.232 92.2394 166.131C83.4385 168.47 82.9931 168.136 85.4439 161.563C90.4571 148.64 104.382 137.389 110.287 141.622Z" fill="black"/>
</svg>
