<svg width="176" height="185" viewBox="0 0 176 185" fill="none" xmlns="http://www.w3.org/2000/svg">
<path d="M50.5966 77.808C43.6896 85.2719 44.0238 92.2903 51.4878 94.2956C58.3948 96.1894 71.0946 84.9378 67.1956 80.2589C63.0737 75.3571 54.0501 74.0203 50.5966 77.808Z" fill="black"/>
<path d="M48.5912 161.917C44.0237 162.697 37.6738 177.18 40.3474 180.411C45.6947 186.872 53.1587 185.2 59.1744 176.176C65.5244 166.373 60.7341 159.8 48.5912 161.917Z" fill="black"/>
<path d="M26.1994 35.3648C21.2977 37.2586 18.7354 47.9532 22.3003 51.1839C27.759 56.0856 32.6607 54.8591 38.4536 47.1723C44.358 39.4855 36.1142 31.4657 26.1994 35.3648Z" fill="black"/>
<path d="M7.92938 112.455C5.03291 114.795 0.354004 122.592 0.354004 125.154C0.354004 134.512 18.1784 130.502 23.8599 119.808C26.645 114.572 13.0539 108.333 7.92938 112.455Z" fill="black"/>
<path d="M89.1407 120.698C83.2364 121.589 79.5601 133.845 84.1276 137.075C88.2495 139.972 91.0357 139.191 96.4944 133.286C105.295 124.04 98.9441 119.25 89.1407 120.698Z" fill="black"/>
<path d="M112.982 161.137C103.513 174.394 103.958 183.418 113.985 183.418C117.327 183.418 130.806 168.157 130.806 164.369C130.695 157.573 117.215 155.121 112.982 161.137Z" fill="black"/>
<path d="M139.607 102.429C134.037 105.214 129.804 120.921 134.037 123.149C139.719 126.157 146.848 121.923 153.087 111.786C156.875 105.547 147.071 98.7528 139.607 102.429Z" fill="black"/>
<path d="M83.9058 3.27971C71.0945 16.9822 70.5375 27.5655 82.6804 27.5655C86.8023 27.5655 97.9425 17.4278 101.842 10.1867C105.295 3.50252 89.3645 -2.62462 83.9058 3.27971Z" fill="black"/>
<path d="M127.241 55.8617C121.56 52.9652 116.435 53.7462 113.873 57.8681C103.624 74.4671 115.99 81.0398 128.355 65.4434C132.366 60.5417 132.032 58.3126 127.241 55.8617Z" fill="black"/>
<path d="M174.922 42.6048C173.585 38.5943 164.227 35.475 159.994 37.5917C156.652 39.2627 150.97 54.526 152.864 56.754C157.766 62.7697 177.484 50.0687 174.922 42.6048Z" fill="black"/>
</svg>
