<svg width="304" height="285" viewBox="0 0 304 285" fill="none" xmlns="http://www.w3.org/2000/svg">
<path fill-rule="evenodd" clip-rule="evenodd" d="M255.387 189.201L243.912 187.418L251.376 183.631C275.438 171.376 297.943 149.43 294.935 141.298C291.37 131.717 270.314 137.288 244.58 154.779C231.769 163.468 231.88 163.355 245.137 149.542C279.449 113.559 295.158 77.5755 282.235 64.6528C274.548 56.966 266.303 61.8678 255.609 80.3606C246.808 95.6227 246.809 95.5124 249.817 84.595C257.17 57.8584 250.039 28.5582 236.225 28.5582C224.193 28.5582 219.737 41.9267 208.263 72.5624V59.6397C208.04 19.9806 195.898 -4.75117 179.745 1.82158C174.175 4.04963 171.724 13.5197 170.721 37.2489C169.941 54.1821 169.495 54.9608 166.487 45.2688C157.129 15.7469 137.746 -3.19131 129.502 9.28577C126.606 13.6305 128.277 39.1428 132.844 62.3145C134.85 72.5635 136.521 80.8073 136.298 80.6959C136.186 80.4731 133.066 76.5729 129.39 71.894C112.122 50.0591 90.3989 37.4717 72.5745 38.9199C57.4238 40.1454 56.1984 43.9331 66.893 57.8584L83.8273 79.8036C93.9649 92.9491 93.8535 92.2806 84.4957 90.2754C74.8037 88.2701 59.8758 88.2701 54.9741 90.3868C45.282 94.5087 49.1811 97.0709 77.7002 127.929C80.3738 130.826 80.0396 130.826 69.4564 126.147C5.95662 98.185 5.51057 127.929 69.0097 162.241C84.4946 170.597 103.767 182.405 103.21 182.962C102.987 183.296 99.5351 182.628 95.636 181.737C78.2572 177.615 46.3961 178.618 18.0994 184.522C-20.6687 192.654 9.18685 203.572 75.1368 205.577L98.5313 206.245L85.72 212.484C66.2246 221.953 33.3616 245.126 31.5792 250.585C28.2371 260.945 55.3071 254.371 99.3111 234.096C109.003 229.64 116.913 226.186 116.913 226.409C116.913 226.521 114.352 230.197 111.232 234.319C93.2965 257.936 93.8524 276.318 112.457 271.416C118.584 269.745 128.721 258.271 155.458 229.975C157.129 276.987 156.685 284.784 169.607 284.784C177.517 284.784 180.301 278.1 182.306 253.703L183.087 244.791L187.653 249.471C228.761 291.804 242.798 285.119 215.727 236.102C212.942 230.978 210.825 226.855 211.048 226.855C211.271 226.855 217.51 229.863 224.751 233.428C275.217 258.382 291.146 256.042 268.42 226.298C263.407 219.725 263.073 218.834 265.301 219.502C292.594 227.412 303.066 227.078 303.066 217.943C302.844 205.8 282.681 193.546 255.387 189.201ZM79.7043 52.8453C75.3596 47.7207 70.9035 42.9293 81.8209 46.8284C104.547 54.738 125.936 86.0421 137.077 121.579C142.424 138.513 142.091 139.292 135.184 128.264C125.937 113.781 129.502 120.688 115.577 100.413C105.105 85.2623 87.8367 62.3145 79.7043 52.8453ZM73.1315 99.5218C71.7947 97.0709 77.1431 97.7394 86.0553 101.193C101.429 107.209 113.015 121.134 128.388 152.215C133.29 162.13 134.069 164.358 131.952 162.241C121.926 152.327 74.0228 101.193 73.1315 99.5218ZM87.5025 158.788C68.3412 148.539 62.7711 144.751 53.5247 135.95C44.8353 127.707 46.2835 125.701 65.779 135.171C82.935 143.526 97.9754 152.662 111.232 164.805C122.595 175.165 121.035 178.729 110.229 171.822C105.884 169.037 95.6349 163.133 87.5025 158.788ZM26.5661 192.543C21.3302 191.652 22.8898 191.095 48.8469 187.418C55.5311 186.416 69.1222 186.973 78.9256 188.421C89.6202 190.092 101.316 193.211 108.112 196.331C115.576 199.784 52.189 196.776 26.5661 192.543ZM98.1971 223.848C77.2534 233.54 63.3292 239.555 63.3292 238.664C63.3292 236.881 109.672 205.911 129.278 205.688C131.952 206.245 132.176 209.922 129.614 210.924C121.593 213.821 111.12 217.721 98.1971 223.848ZM117.024 242.786C125.936 227.19 141.868 213.487 148.998 213.487C150 213.487 150.78 214.045 151.226 214.936C151.671 215.827 151.559 216.829 150.89 217.497C138.859 232.314 131.284 238.663 121.035 249.692C112.234 259.273 112.791 250.25 117.024 242.786ZM137.969 21.317C137.969 16.9723 139.751 18.9776 145.656 30.7862C160.472 60.1967 160.918 93.9517 162.366 146.088C153.231 105.092 137.746 40.5899 137.969 21.317ZM235.111 171.933C263.407 149.319 282.681 137.51 282.681 143.192C282.681 148.984 257.281 170.485 239.902 179.175C225.977 186.193 207.706 192.431 215.058 187.53C216.618 186.527 225.642 179.509 235.111 171.933ZM256.056 99.0773C269.535 79.0248 275.327 77.3527 271.317 91.3894C262.627 121.245 220.628 158.899 198.794 178.395C229.095 136.842 241.016 121.246 256.056 99.0773ZM201.022 144.974C210.714 117.123 219.516 72.6738 230.99 44.3776C233.441 38.2504 234.331 39.4758 236.225 51.3959C239.901 75.236 227.313 114.117 205.144 147.537C194.894 163.022 194.783 162.91 201.022 144.974ZM183.197 20.426C184.2 12.0708 185.202 13.2967 188.767 26.9992C194.894 50.6161 191.664 95.8455 181.526 128.264C179.521 134.614 180.969 38.4732 183.197 20.426ZM215.504 262.169C213.499 264.175 193.336 241.003 188.657 231.2C176.514 205.577 180.413 198.002 194.227 220.394C205.479 238.552 216.841 260.833 215.504 262.169ZM257.17 237.995C252.491 237.995 222.412 222.622 205.924 211.816L198.905 207.248C198.014 206.691 197.568 205.688 197.791 204.686C197.902 203.683 198.683 202.903 199.686 202.569C205.256 201.009 207.818 201.009 212.497 204.463C223.526 212.484 235.334 209.142 248.368 223.401C254.049 229.528 259.175 237.995 257.17 237.995ZM283.014 215.269C278.112 213.821 261.736 209.922 252.378 207.916C240.569 205.354 229.429 201.344 220.183 198.113C224.528 197.779 242.464 193.657 258.172 197.445C268.087 199.784 278.782 204.909 282.124 208.585C285.466 212.15 286.022 216.16 283.014 215.269Z" fill="black"/>
</svg>
