<svg width="220" height="220" viewBox="0 0 220 220" fill="none" xmlns="http://www.w3.org/2000/svg">
<path fill-rule="evenodd" clip-rule="evenodd" d="M98.9944 3.83191C75.5999 20.2081 52.4282 138.406 52.4282 138.518L43.6273 126.263C28.2538 104.985 19.0074 93.6212 12.1004 89.2765C-0.265235 81.3669 -0.376635 92.2855 0.29178 101.309C2.07422 125.929 36.8318 221.735 51.7597 213.826C55.2132 212.043 54.2106 208.478 44.63 186.978C34.6038 164.474 19.5644 123.366 19.5644 118.241C19.5644 117.127 30.9275 133.616 38.7256 146.316C52.651 168.708 63.3456 162.023 63.6798 154.114C64.1254 142.194 70.1412 107.77 75.2657 87.8294C77.1595 80.254 80.3902 69.448 82.284 63.7664C83.3981 60.4244 86.7401 59.3103 86.2945 61.5384C83.5095 76.0207 82.1726 83.7075 81.17 89.6118C78.4964 105.877 91.0848 102.199 92.1989 94.8466C93.3129 87.8283 112.697 59.5331 127.402 45.385C132.638 40.3719 135.312 42.5989 125.842 55.2987C112.251 73.5687 105.79 85.3785 101.557 92.2855C92.9787 106.099 104.119 106.21 114.257 93.7326C122.612 83.4836 150.462 55.4113 160.043 47.9473C163.831 44.9394 165.056 47.7245 163.051 50.0639C159.597 54.2972 150.685 62.0943 142.553 71.4521C129.853 86.1572 124.283 96.7416 120.049 101.866C108.798 115.569 122.055 113.786 136.426 101.086C150.462 88.4978 156.701 83.4836 170.738 73.6802C184.663 63.9881 201.708 53.8516 202.487 54.6314C204.938 56.9709 149.683 117.462 142.107 120.693C139.545 121.807 138.208 123.255 137.762 125.372C132.972 148.21 123.28 171.381 109.355 193.105C90.0822 223.183 98.9944 227.305 119.604 205.025C133.975 189.54 149.237 157.343 152.245 136.623C153.025 131.609 154.139 130.05 168.064 115.456C210.397 71.1179 224.768 50.621 217.192 46.6105C209.84 42.7114 197.808 46.7219 170.96 62.6524C161.825 68.1111 162.048 67.5541 176.531 50.9552C206.609 16.4204 187.225 17.7561 170.96 29.6762C158.483 38.8112 158.149 39.0351 147.009 46.8333C163.719 22.7703 169.624 14.5265 163.274 12.0757C158.149 10.1818 153.359 10.8492 149.237 14.0798C138.208 22.5464 118.824 39.8138 109.689 49.1716C104.008 54.9645 99.44 59.5331 99.44 59.3103C99.44 59.0875 101.891 48.7271 105.01 36.25C113.143 4.83453 111.249 -4.74598 98.9944 3.83191Z" fill="black"/>
</svg>
