<svg width="237" height="298" viewBox="0 0 237 298" fill="none" xmlns="http://www.w3.org/2000/svg">
<path fill-rule="evenodd" clip-rule="evenodd" d="M89.5751 1.3118C86.3144 2.57988 84.684 4.39128 85.0463 6.38396C85.5898 9.46357 19.106 99.3156 2.07761 153.843C-3.17584 170.871 5.33872 173.226 44.1055 165.799C67.6554 161.27 66.7495 156.56 51.1703 200.399C39.5765 232.645 31.0627 259.636 27.0773 276.121C21.6427 297.86 33.0552 309.272 61.3151 279.744C73.4523 267.064 100.988 238.623 165.478 165.074C220.186 102.758 220.005 104.388 176.89 102.758L150.261 101.671C162.761 88.4466 209.498 38.0858 223.809 26.3108C238.12 14.3547 242.649 9.4637 223.447 6.7464C201.165 3.48564 125.805 2.21761 103.705 0.224928C98.6325 -0.318531 92.2924 0.224884 89.5751 1.3118ZM196.999 19.6082L187.578 27.3979C164.572 46.2379 119.103 100.402 119.103 108.736C119.103 117.793 134.32 116.887 173.63 116.887C115.661 184.095 70.3726 236.449 69.2856 236.449C68.9233 236.449 73.0902 224.493 78.7059 209.638C99.7197 153.299 100.807 142.792 85.9521 144.604C60.2283 147.684 35.048 151.125 31.6061 152.212C28.5265 153.118 30.5188 148.227 42.1126 126.489C62.7641 86.9972 71.0972 75.5845 107.328 15.2605C176.347 18.3401 175.623 18.3402 196.999 19.6082Z" fill="black"/>
</svg>
