<svg width="308" height="356" viewBox="0 0 308 356" fill="none" xmlns="http://www.w3.org/2000/svg">
<path fill-rule="evenodd" clip-rule="evenodd" d="M152.275 1.90738C138.127 5.69518 116.738 18.3948 97.2426 34.5482C-43.6817 151.632 -28.7541 321.856 125.316 353.272C247.302 378.115 368.062 157.759 273.481 82.8968C214.438 36.1082 122.085 88.6897 104.929 178.703C90.3356 255.571 165.978 311.607 216.332 261.365C268.245 209.563 267.688 137.15 215.218 136.704C174.445 136.37 150.382 199.424 186.142 212.792C207.308 220.702 232.262 196.082 215.663 183.716C210.205 179.594 206.528 180.485 204.635 186.055C200.958 197.641 188.704 205.885 186.699 198.198C180.794 176.363 215.552 137.038 229.255 150.072C248.75 168.565 232.262 221.593 196.725 254.457C144.143 303.14 98.6908 222.931 136.345 147.734C179.68 61.174 270.808 51.1473 287.407 131.134C305.342 217.248 214.661 344.358 137.793 340.237C39.3131 335.001 -11.1524 234.405 39.6472 134.366C66.1613 82.0067 123.088 25.5247 165.31 9.70556C182.243 3.35562 171.325 -3.10573 152.275 1.90738Z" fill="black"/>
</svg>
